<?xml version="1.0" encoding="UTF-8" standalone="no"?>
<svg
   width="1024"
   height="512"
   fill="none"
   version="1.1"
   id="svg218"
   sodipodi:docname="astro-logo-banner.svg"
   inkscape:version="1.2.2 (b0a8486541, 2022-12-01)"
   xmlns:inkscape="http://www.inkscape.org/namespaces/inkscape"
   xmlns:sodipodi="http://sodipodi.sourceforge.net/DTD/sodipodi-0.dtd"
   xmlns="http://www.w3.org/2000/svg"
   xmlns:svg="http://www.w3.org/2000/svg">
  <sodipodi:namedview
     id="namedview220"
     pagecolor="#ffffff"
     bordercolor="#000000"
     borderopacity="0.25"
     inkscape:showpageshadow="2"
     inkscape:pageopacity="0.0"
     inkscape:pagecheckerboard="0"
     inkscape:deskcolor="#d1d1d1"
     showgrid="false"
     inkscape:zoom="1.1339501"
     inkscape:cx="516.77759"
     inkscape:cy="261.03441"
     inkscape:window-width="1920"
     inkscape:window-height="1011"
     inkscape:window-x="0"
     inkscape:window-y="0"
     inkscape:window-maximized="1"
     inkscape:current-layer="svg218" />
  <rect
     style="opacity:0.99;fill:#17191e;stroke-width:18.0208;fill-opacity:1"
     id="rect437"
     width="1024"
     height="512"
     x="0"
     y="0" />
  <defs
     id="defs216">
    <linearGradient
       id="paint0_linear"
       x1="144.599"
       y1="5.4229999"
       x2="95.791"
       y2="173.38"
       gradientUnits="userSpaceOnUse">
      <stop
         stop-color="#fff"
         id="stop206" />
      <stop
         offset="1"
         stop-color="#F9FAFB"
         id="stop208" />
    </linearGradient>
    <linearGradient
       id="paint1_linear"
       x1="168.336"
       y1="130.49001"
       x2="126.065"
       y2="218.98199"
       gradientUnits="userSpaceOnUse">
      <stop
         stop-color="#FF1639"
         id="stop211" />
      <stop
         offset="1"
         stop-color="#FF1639"
         stop-opacity="0"
         id="stop213" />
    </linearGradient>
  </defs>
  <g
     id="g2001"
     transform="matrix(5.0485557,0,0,5.0485557,-3236.7398,-1288.9082)">
    <path
       d="m 730.62658,332.69829 c -3.8759,-3.4962 -5.0073,-10.8423 -3.3925,-16.1644 2.7999,3.3555 6.6794,4.4184 10.6978,5.0184 6.2036,0.9259 12.296,0.5796 18.0588,-2.2185 0.6593,-0.3203 1.2685,-0.7463 1.9889,-1.1777 0.5407,1.5481 0.6814,3.111 0.4926,4.7017 -0.4593,3.874 -2.4129,6.8665 -5.5203,9.135 -1.2425,0.9073 -2.5573,1.7184 -3.8406,2.574 -3.9425,2.6295 -5.0092,5.7128 -3.5277,10.1979 0.0352,0.1092 0.0667,0.2185 0.1463,0.4851 -2.0129,-0.8888 -3.4833,-2.1832 -4.6036,-3.8851 -1.1833,-1.7962 -1.7463,-3.7832 -1.7759,-5.9331 -0.0148,-1.0463 -0.0148,-2.1018 -0.1574,-3.1333 -0.3481,-2.5147 -1.5444,-3.6406 -3.798,-3.7055 -2.3129,-0.0666 -4.1425,1.3445 -4.6277,3.5666 -0.037,0.1704 -0.0907,0.3389 -0.1444,0.537 z"
       fill="#ffffff"
       id="path1465" />
    <path
       d="m 711.13418,318.16329 c 0,0 10.5979,-5.1499 21.2254,-5.1499 l 8.0128,-24.7364 c 0.2999,-1.1963 1.1759,-2.0092 2.1647,-2.0092 0.9889,0 1.8648,0.8129 2.1648,2.0092 l 8.0127,24.7364 c 12.5868,0 21.2254,5.1499 21.2254,5.1499 0,0 -18.0014,-48.91734 -18.0366,-49.01548 -0.5166,-1.44626 -1.3888,-2.37772 -2.5647,-2.37772 h -21.6013 c -1.1759,0 -2.0129,0.93146 -2.5648,2.37772 -0.0389,0.0963 -18.0384,49.01548 -18.0384,49.01548 z"
       fill="#ffffff"
       id="path1467" />
  </g>
</svg>
